<svg width="164" height="40" viewBox="0 0 164 40" fill="none" xmlns="http://www.w3.org/2000/svg">
<path d="M141.199 28.9251H136.899L138.593 24.886H150.45L152.404 28.9251H147.062V40H164V28.9251H158.137L147.844 0H141.199L129.863 28.9251H124V40H141.199V28.9251Z" fill="white"/>
<path d="M53.1987 28.9251H48.899L50.5928 24.886H62.4495L64.4039 28.9251H59.0619V40H76V28.9251H70.1368L59.8436 0H53.1987L41.8632 28.9251H36V40H53.1987V28.9251Z" fill="white"/>
<path d="M111.796 1H82.9108V13.0498H87.855V27.691H82V40H99.6952V27.691H95.0112V24.1927H105.16V40H117V27.691H111.796V22.5083L108.673 21.6013L111.796 19.3987V1Z" fill="white"/>
<path d="M6.34254 28.4767V13.85H0V1.03552H25.7585L29.9006 4.40095V17.086L27.3118 19.8043L30.8066 21.2281V36.7609L27.3118 39.8674H0V28.4767H6.34254Z" fill="white"/>
</svg>
